<svg width="20" height="20" viewBox="0 0 20 20" fill="none" xmlns="http://www.w3.org/2000/svg">
<g clip-path="url(#clip0_601_285)">
<path d="M1.42259 6.07741C1.09715 5.75197 0.569514 5.75197 0.244078 6.07741C-0.0813592 6.40285 -0.0813592 6.93048 0.244078 7.25592L1.75042 8.76225C1.9955 9.00733 2.24878 9.23925 2.50937 9.458C2.5032 9.49883 2.5 9.54075 2.5 9.58333V10.8333C2.5 11.2936 2.8731 11.6667 3.33333 11.6667C3.79357 11.6667 4.16667 11.2936 4.16667 10.8333V10.6197C4.70465 10.9306 5.26215 11.1951 5.83333 11.413V12.5C5.83333 12.9602 6.20643 13.3333 6.66667 13.3333C7.12691 13.3333 7.5 12.9602 7.5 12.5V11.9098C8.05011 12.0299 8.60725 12.1099 9.16667 12.1497V13.3333C9.16667 13.7936 9.53975 14.1667 10 14.1667C10.4603 14.1667 10.8333 13.7936 10.8333 13.3333V12.1497C11.3928 12.1099 11.9499 12.0299 12.5 11.9098V12.5C12.5 12.9602 12.8731 13.3333 13.3333 13.3333C13.7936 13.3333 14.1667 12.9602 14.1667 12.5V11.413C14.7378 11.1951 15.2953 10.9306 15.8333 10.6197V10.8333C15.8333 11.2936 16.2064 11.6667 16.6667 11.6667C17.1269 11.6667 17.5 11.2936 17.5 10.8333V9.58333C17.5 9.54075 17.4968 9.49883 17.4907 9.458C17.7513 9.23925 18.0045 9.00733 18.2496 8.76225L19.7559 7.25592C20.0813 6.93048 20.0813 6.40285 19.7559 6.07741C19.4305 5.75197 18.9028 5.75197 18.5774 6.07741L17.0711 7.58375C13.1658 11.489 6.83418 11.489 2.92893 7.58375L1.42259 6.07741Z" fill="#828A89"/>
</g>
<defs>
<clipPath id="clip0_601_285">
<rect width="20" height="20" fill="white"/>
</clipPath>
</defs>
</svg>
