<svg xmlns="http://www.w3.org/2000/svg" width="21.937" height="22.756" viewBox="0 0 21.937 22.756">
  <g id="icon-cart" transform="translate(0.516 0.5)">
    <circle id="ellipse" cx="1.917" cy="1.917" r="1.917" transform="translate(13.436 17.922)" fill="none" stroke="#fff" stroke-linecap="round" stroke-linejoin="round" stroke-width="1"/>
    <path id="path" d="M241.693,772.645h9.964a1.953,1.953,0,0,0,1.97-1.825,1.918,1.918,0,0,0-1.915-2.009H240.339a3.358,3.358,0,0,1-3.106-2.08L235,761.3a1.991,1.991,0,0,1,1.841-2.749H249.69" transform="translate(-234.849 -754.722)" fill="none" stroke="#fff" stroke-linecap="round" stroke-linejoin="round" stroke-width="1"/>
    <path id="path-2" data-name="path" d="M242.771,774.848a3.359,3.359,0,0,1-3.106-2.081h0" transform="translate(-235.596 -756.926)" fill="none" stroke="#fff" stroke-linecap="round" stroke-linejoin="round" stroke-width="1"/>
    <path id="path-3" data-name="path" d="M252.414,758.2a1.917,1.917,0,0,0,1.917-1.917" transform="translate(-237.573 -754.371)" fill="none" stroke="#fff" stroke-linecap="round" stroke-linejoin="round" stroke-width="1"/>
    <circle id="ellipse-2" data-name="ellipse" cx="1.917" cy="1.917" r="1.917" transform="translate(5.664 17.922)" fill="none" stroke="#fff" stroke-linecap="round" stroke-linejoin="round" stroke-width="1"/>
    <line id="line" x2="2.232" y2="5.425" transform="translate(2.983 6.251)" fill="none" stroke="#fff" stroke-linecap="round" stroke-linejoin="round" stroke-width="1"/>
    <line id="line-2" data-name="line" x2="2.232" y2="5.425" transform="translate(5.999 6.251)" fill="none" stroke="#fff" stroke-linecap="round" stroke-linejoin="round" stroke-width="1"/>
    <line id="line-3" data-name="line" x2="2.232" y2="5.425" transform="translate(9.016 6.251)" fill="none" stroke="#fff" stroke-linecap="round" stroke-linejoin="round" stroke-width="1"/>
    <line id="line-4" data-name="line" x2="2.232" y2="5.425" transform="translate(12.033 6.251)" fill="none" stroke="#fff" stroke-linecap="round" stroke-linejoin="round" stroke-width="1"/>
    <line id="line-5" data-name="line" x2="4.695" y2="11.411" transform="translate(13.942 3.834)" fill="none" stroke="#fff" stroke-linecap="round" stroke-linejoin="round" stroke-width="1"/>
    <line id="line-6" data-name="line" x2="8.885" transform="translate(4.099 8.963)" fill="none" stroke="#fff" stroke-linecap="round" stroke-linejoin="round" stroke-width="1"/>
    <path id="path-4" data-name="path" d="M258.771,754.746a1.176,1.176,0,0,0-1.087-.727H256.6a1.917,1.917,0,0,0-1.917,1.916h3.291a.861.861,0,0,0,.8-1.189Z" transform="translate(-237.925 -754.019)" fill="none" stroke="#fff" stroke-linecap="round" stroke-linejoin="round" stroke-width="1"/>
  </g>
</svg>
