<svg xmlns="http://www.w3.org/2000/svg" width="17.716" height="17.716" viewBox="0 0 17.716 17.716">
  <g id="icon-settings" transform="translate(0.5 0.5)">
    <circle id="ellipse" cx="3.108" cy="3.108" r="3.108" transform="translate(5.25 5.25)" fill="none" stroke="#98b119" stroke-linecap="round" stroke-linejoin="round" stroke-width="1"/>
    <path id="path" d="M301.855,765.827v-1.453a.658.658,0,0,0-.659-.659h-.781a.663.663,0,0,1-.641-.461,6.493,6.493,0,0,0-.755-1.655.648.648,0,0,1,.1-.8h0a.66.66,0,0,0,0-.931l-.385-.384a.658.658,0,0,0-.931,0h0a.647.647,0,0,1-.8.1,6.471,6.471,0,0,0-1.656-.755.663.663,0,0,1-.461-.642V757.4a.658.658,0,0,0-.658-.659H292.77a.658.658,0,0,0-.658.659v.781a.662.662,0,0,1-.461.641,6.5,6.5,0,0,0-1.656.755.647.647,0,0,1-.8-.1h0a.658.658,0,0,0-.931,0l-.385.384a.66.66,0,0,0,0,.931h0a.648.648,0,0,1,.1.8,6.493,6.493,0,0,0-.755,1.655.663.663,0,0,1-.641.461H285.8a.658.658,0,0,0-.659.659v1.453a.659.659,0,0,0,.659.659h.781a.662.662,0,0,1,.641.461,6.505,6.505,0,0,0,.755,1.655.648.648,0,0,1-.1.8h0a.659.659,0,0,0,0,.931l.385.385a.659.659,0,0,0,.931,0h0a.647.647,0,0,1,.8-.1,6.5,6.5,0,0,0,1.656.755.663.663,0,0,1,.461.641v.781a.658.658,0,0,0,.658.659h1.454a.658.658,0,0,0,.658-.659v-.781a.663.663,0,0,1,.461-.641,6.5,6.5,0,0,0,1.656-.755.647.647,0,0,1,.8.1h0a.66.66,0,0,0,.931,0l.385-.385a.659.659,0,0,0,0-.931h0a.648.648,0,0,1-.1-.8,6.505,6.505,0,0,0,.755-1.655.662.662,0,0,1,.641-.461h.781A.659.659,0,0,0,301.855,765.827Z" transform="translate(-285.139 -756.742)" fill="none" stroke="#98b119" stroke-linecap="round" stroke-linejoin="round" stroke-width="1"/>
  </g>
</svg>
