<svg width="44" height="44" viewBox="0 0 44 44" fill="none" xmlns="http://www.w3.org/2000/svg">
<circle cx="22" cy="22" r="22" fill="white"/>
<path d="M20.6501 13.0011C19.4298 12.9982 18.2266 13.288 17.1415 13.8461C16.0563 14.4042 15.1208 15.2144 14.4133 16.2087C13.7059 17.203 13.2472 18.3525 13.0757 19.5606C12.9043 20.7688 13.025 22.0005 13.4278 23.1524C13.8306 24.3043 14.5037 25.3428 15.3907 26.1808C16.2777 27.0189 17.3528 27.632 18.5257 27.9688C19.6986 28.3056 20.9351 28.3563 22.1316 28.1165C23.3281 27.8767 24.4497 27.3535 25.4022 26.5908L28.58 29.7663C28.7406 29.9189 28.9545 30.0027 29.1761 29.9999C29.3976 29.9971 29.6093 29.9079 29.766 29.7513C29.9228 29.5947 30.0122 29.3831 30.0152 29.1616C30.0182 28.94 29.9346 28.7261 29.7822 28.5653L26.6044 25.3875C27.5036 24.2665 28.0674 22.9142 28.2308 21.4865C28.3943 20.0588 28.1507 18.6139 27.5281 17.3188C26.9056 16.0236 25.9294 14.9308 24.7124 14.1667C23.4954 13.4025 22.0871 12.9981 20.6501 13V13.0011ZM20.6501 14.6966C21.8245 14.696 22.9728 15.0437 23.9495 15.6957C24.9263 16.3478 25.6877 17.2749 26.1375 18.3598C26.5872 19.4447 26.7051 20.6386 26.4761 21.7905C26.2471 22.9424 25.6817 24.0005 24.8512 24.831C24.0208 25.6614 22.9627 26.2269 21.8108 26.4558C20.6589 26.6848 19.465 26.5669 18.3801 26.1172C17.2952 25.6675 16.3681 24.9061 15.716 23.9293C15.0639 22.9525 14.7162 21.8043 14.7169 20.6299C14.715 19.8502 14.8672 19.0778 15.1647 18.3571C15.4622 17.6363 15.8991 16.9815 16.4505 16.4302C17.0018 15.8789 17.6566 15.4419 18.3773 15.1444C19.098 14.8469 19.8704 14.6947 20.6501 14.6966Z" fill="#373A43"/>
</svg>
