<svg xmlns="http://www.w3.org/2000/svg" width="18.62" height="16.48" viewBox="0 0 18.62 16.48">
  <g id="wallet" transform="translate(0.102 -27.907)">
    <g id="Group_3018" data-name="Group 3018" transform="translate(10.127 31.69)">
      <g id="Group_3017" data-name="Group 3017" transform="translate(0 0)">
        <path id="Path_907" data-name="Path 907" d="M269.217,124.007h-4.91a.307.307,0,1,0,0,.614h4.6v.921a.307.307,0,0,0,.614,0v-1.228A.307.307,0,0,0,269.217,124.007Z" transform="translate(-264 -124.007)" fill="#98b119"/>
      </g>
    </g>
    <g id="Group_3020" data-name="Group 3020" transform="translate(1.228 37.52)">
      <g id="Group_3019" data-name="Group 3019">
        <path id="Path_908" data-name="Path 908" d="M36.91,278.769H33.878a1.256,1.256,0,0,1-.894-.37,1.274,1.274,0,0,1-.37-.894v-1.19a.307.307,0,1,0-.614,0v1.19a1.879,1.879,0,0,0,1.878,1.878H36.91a.307.307,0,1,0,0-.614Z" transform="translate(-32 -276.007)" fill="#98b119"/>
      </g>
    </g>
    <g id="Group_3022" data-name="Group 3022" transform="translate(0 28.007)">
      <g id="Group_3021" data-name="Group 3021" transform="translate(0 0)">
        <path id="Path_909" data-name="Path 909" d="M17.5,39.908a2.455,2.455,0,0,0-.623-.365V38.134H17.8a.307.307,0,0,0,.307-.307V34.758a.307.307,0,0,0-.307-.307h-.921V30.769a.307.307,0,0,0-.307-.307H15.344v-.921a.307.307,0,0,0-.307-.307H12.582v-.921a.307.307,0,0,0-.307-.307H1.56a1.519,1.519,0,0,0-1.066.441L.442,28.5a1.5,1.5,0,0,0-.426,1.27A.293.293,0,0,0,0,29.848v9.873a2.4,2.4,0,0,0,2.4,2.4h8.053a2.45,2.45,0,0,0,3.966,1.608,2.455,2.455,0,1,0,3.08-3.824Zm-.009-4.842V37.52H13.525a1.228,1.228,0,0,1,0-2.455ZM.876,28.935l.052-.052a.9.9,0,0,1,.632-.262H11.968v.614H2.148a.307.307,0,0,0,0,.614H14.73v.614H1.508a.895.895,0,0,1-.633-1.527Zm9.58,12.574H2.4A1.788,1.788,0,0,1,.614,39.721h0V30.777a1.511,1.511,0,0,0,.895.3H16.265v3.376h-2.74a1.841,1.841,0,1,0,0,3.683h2.74v1.249a2.473,2.473,0,0,0-.307-.021,2.433,2.433,0,0,0-1.534.541,2.45,2.45,0,0,0-3.968,1.607Zm2.434,2.148a1.841,1.841,0,1,1,1.841-1.841A1.841,1.841,0,0,1,12.889,43.658Zm3.069,0a1.826,1.826,0,0,1-1.107-.372,2.437,2.437,0,0,0,0-2.939,1.841,1.841,0,1,1,1.107,3.311Z" transform="translate(0 -28.007)" fill="#98b119" stroke="#98b119" stroke-width="0.2"/>
      </g>
    </g>
  </g>
</svg>
