<svg xmlns="http://www.w3.org/2000/svg" width="17.961" height="18.047" viewBox="0 0 17.961 18.047">
  <g id="Group_3024" data-name="Group 3024" transform="translate(-337 -38.976)">
    <path id="whatsapp_1_" data-name="whatsapp (1)" d="M15.594,2.623A8.945,8.945,0,0,0,1.519,13.413L.25,18.047,4.991,16.8a8.933,8.933,0,0,0,4.274,1.089h0A8.947,8.947,0,0,0,15.594,2.623ZM9.268,16.382h0a7.424,7.424,0,0,1-3.783-1.036l-.271-.161L2.4,15.922l.751-2.743L2.971,12.9a7.433,7.433,0,1,1,6.3,3.483Zm4.077-5.567c-.223-.112-1.322-.652-1.527-.727s-.354-.112-.5.112-.577.727-.708.876-.261.168-.484.056a6.1,6.1,0,0,1-1.8-1.109A6.74,6.74,0,0,1,7.084,8.475c-.13-.224,0-.333.1-.456a6.321,6.321,0,0,0,.559-.764.411.411,0,0,0-.019-.391c-.056-.112-.5-1.212-.689-1.659s-.366-.377-.5-.384-.279-.008-.428-.008a.821.821,0,0,0-.6.28,2.506,2.506,0,0,0-.782,1.864,4.347,4.347,0,0,0,.912,2.312,9.96,9.96,0,0,0,3.817,3.374,12.79,12.79,0,0,0,1.274.471,3.063,3.063,0,0,0,1.407.089,2.3,2.3,0,0,0,1.508-1.063,1.867,1.867,0,0,0,.13-1.063c-.056-.093-.2-.149-.428-.261Zm0,0" transform="translate(336.75 38.976)" fill="#748a9d" fill-rule="evenodd"/>
  </g>
</svg>
