<svg width="48" height="48" viewBox="0 0 48 48" fill="none" xmlns="http://www.w3.org/2000/svg">
<rect width="48" height="48" rx="16" fill="white"/>
<g clip-path="url(#clip0_422_148)">
<path d="M29.0051 26.0405L27.9452 24.9806C27.656 24.6914 27.2563 24.5465 26.8494 24.5831C26.4421 24.6196 26.0749 24.8332 25.8418 25.1691L25.4726 25.7012C24.9704 25.6118 23.9991 25.3586 23.3201 24.6796C22.6408 24.0003 22.3877 23.0285 22.2984 22.5271L22.8306 22.1579C23.1665 21.9247 23.3802 21.5574 23.4166 21.1502C23.4531 20.7429 23.3082 20.3435 23.0191 20.0545L21.9592 18.9945C21.5333 18.5686 20.8913 18.467 20.3616 18.7415C19.4328 19.2226 18.8228 20.1246 18.6435 21.2811C18.3516 23.1655 19.2228 25.3885 20.9169 27.0827C22.3945 28.5603 24.2742 29.4118 25.9808 29.4118C26.231 29.4118 26.4776 29.3934 26.7185 29.3561C27.8751 29.177 28.777 28.5668 29.2582 27.6381C29.2582 27.6381 29.2582 27.6381 29.2582 27.6381C29.5326 27.1084 29.431 26.4664 29.0051 26.0405ZM28.1797 27.0794C27.7974 27.8174 27.0729 28.0721 26.5326 28.1558C25.0468 28.3859 23.1796 27.6277 21.7758 26.2238C20.372 24.82 19.6136 22.9529 19.8438 21.4671C19.9274 20.9267 20.1822 20.2023 20.9203 19.8199C20.9403 19.8096 20.9624 19.8045 20.9848 19.8045C21.026 19.8045 21.0684 19.8215 21.1003 19.8534L22.1602 20.9133C22.2042 20.9574 22.2099 21.0075 22.2068 21.0418C22.2037 21.0761 22.1893 21.1243 22.1381 21.1599L21.3008 21.7408C21.1258 21.8623 21.0271 22.0668 21.0411 22.2794C21.0463 22.3597 21.1845 24.2616 22.4612 25.5383C23.7379 26.8151 25.6398 26.9533 25.7201 26.9585C25.9326 26.9722 26.1372 26.8738 26.2587 26.6987L26.8397 25.8615C26.8752 25.8103 26.9235 25.7959 26.9578 25.7928C26.9921 25.7896 27.0421 25.7953 27.0863 25.8394L28.1462 26.8993C28.1954 26.9485 28.2092 27.0225 28.1797 27.0794Z" fill="#0C75F9"/>
<path d="M31.0709 16.9291C29.1821 15.0402 26.6708 14 23.9996 14C21.3283 14 18.8171 15.0402 16.9283 16.929C15.3229 18.5344 14.3038 20.659 14.0585 22.9116C13.8265 25.0411 14.2894 27.2086 15.3631 29.046L14.321 32.9352C14.2648 33.1447 14.3247 33.3684 14.4782 33.5218C14.6316 33.6752 14.8553 33.7351 15.0648 33.679L18.9539 32.6369C20.4814 33.5296 22.2372 34 24.0096 34C24.369 34 24.7292 33.9807 25.0883 33.9415C27.3409 33.6962 29.4656 32.6771 31.0709 31.0717C32.9598 29.1829 34 26.6716 34 24.0004C34 21.3292 32.9597 18.8179 31.0709 16.9291ZM30.2121 30.2128C27.3085 33.1164 22.8488 33.6323 19.3669 31.4677C19.2697 31.4073 19.1585 31.3761 19.0462 31.3761C18.9936 31.3761 18.9408 31.383 18.889 31.3968L15.7665 32.2335L16.6032 29.111C16.6466 28.9488 16.621 28.7758 16.5323 28.6332C14.3676 25.1511 14.8836 20.6914 17.7871 17.7879C21.2127 14.3623 26.7865 14.3623 30.2121 17.7879C33.6376 21.2134 33.6376 26.7873 30.2121 30.2128Z" fill="#0C75F9"/>
</g>
<defs>
<clipPath id="clip0_422_148">
<rect width="20" height="20" fill="white" transform="translate(14 14)"/>
</clipPath>
</defs>
</svg>
